Coordinates
version=1
nRows=14
nColumns=46
inDegrees=yes

Units are S.I. units (second, meters, Newtons, ...)
Angles are in degrees.

endheader
time	pelvis_tilt	pelvis_list	pelvis_rotation	pelvis_tx	pelvis_ty	pelvis_tz	bb_angle	bb_tx	bb_ty	bb_tz	hip_flexion_r	hip_adduction_r	hip_rotation_r	knee_angle_r	knee_angle_r_beta	ankle_angle_r	subtalar_angle_r	mtp_angle_r	crank_angle_r	hip_flexion_l	hip_adduction_l	hip_rotation_l	knee_angle_l	knee_angle_l_beta	ankle_angle_l	subtalar_angle_l	mtp_angle_l	crank_angle_l	lumbar_extension	lumbar_bending	lumbar_rotation	arm_flex_r	arm_add_r	arm_rot_r	elbow_flex_r	pro_sup_r	wrist_flex_r	wrist_dev_r	arm_flex_l	arm_add_l	arm_rot_l	elbow_flex_l	pro_sup_l	wrist_flex_l	wrist_dev_l
      5.00500000	    -35.94923818	      9.49770693	      6.01947540	      0.27690512	      1.03785578	     -0.15388583	      0.00000000	      0.50000000	      0.00000000	      0.25000000	     36.04740743	    -13.29229573	    -11.04596920	     15.81539469	      0.27603071	    -26.17327065	      3.92139737	      0.00000000	      0.00000000	     92.27032648	     -3.96693977	      0.81039357	    106.42327835	      1.85743661	     12.73755782	      3.70014864	      0.00000000	      0.00000000	    -36.68874001	     -5.52147044	     -7.04307168	     37.35653794	     -8.79382075	     13.68808910	     82.92476056	     49.44464791	      0.00000000	      0.00000000	     47.84349552	    -25.43811927	     22.50167905	     77.34047106	     50.02903116	      0.00000000	      0.00000000
      5.01000000	    -36.25834153	      9.20545173	      5.94321977	      0.27677499	      1.04006459	     -0.15476006	      0.00000000	      0.50000000	      0.00000000	      0.25000000	     35.90927419	    -13.06373576	    -11.40158468	     15.39212631	      0.26864328	    -27.11688238	      4.31767105	      0.00000000	      0.00000000	     92.47434052	     -3.85356675	      0.84979957	    105.46033198	      1.84063002	     13.19103662	      3.37125512	      0.00000000	      0.00000000	    -36.62017384	     -5.28282054	     -7.03788600	     37.60519523	     -8.63814076	     13.71714369	     82.87258802	     49.44618205	      0.00000000	      0.00000000	     47.83895847	    -25.46535957	     22.42223867	     77.42982290	     50.03528880	      0.00000000	      0.00000000
      5.01500000	    -36.45273328	      8.89097948	      5.95513372	      0.27684375	      1.04256623	     -0.15554528	      0.00000000	      0.50000000	      0.00000000	      0.25000000	     35.57213695	    -12.82125562	    -11.79870997	     14.85782762	      0.25931801	    -28.24521742	      4.48038714	      0.00000000	      0.00000000	     92.45706232	     -3.67301986	      0.88289916	    104.37345402	      1.82166042	     13.64184129	      2.85980697	      0.00000000	      0.00000000	    -36.69831929	     -4.93563324	     -7.19066879	     37.90962499	     -8.24400084	     13.68571550	     82.59922272	     49.40778235	      0.00000000	      0.00000000	     47.69760639	    -25.57215337	     22.23456531	     77.55228431	     50.03766543	      0.00000000	      0.00000000
      5.02000000	    -36.63243396	      8.61762422	      5.75160479	      0.27680514	      1.04476609	     -0.15626575	      0.00000000	      0.50000000	      0.00000000	      0.25000000	     35.49420490	    -12.53203407	    -11.89475427	     14.87390800	      0.25959867	    -28.42963731	      4.54991876	      0.00000000	      0.00000000	     92.41243305	     -3.73789930	      0.89539617	    103.29860365	      1.80290075	     13.89362332	      2.68901717	      0.00000000	      0.00000000	    -36.75048286	     -4.74727666	     -7.07164402	     38.00568478	     -8.12478404	     13.69623940	     82.52730445	     49.39772535	      0.00000000	      0.00000000	     47.65954190	    -25.61485446	     22.18140272	     77.58694767	     50.03866489	      0.00000000	      0.00000000
      5.02500000	    -36.79867646	      8.22668469	      5.70157151	      0.27691150	      1.04734960	     -0.15740762	      0.00000000	      0.50000000	      0.00000000	      0.25000000	     35.17910430	    -12.16560666	    -12.02570639	     14.37398992	      0.25087345	    -29.85885178	      4.19596462	      0.00000000	      0.00000000	     92.24951132	     -3.57241624	      0.97140907	    102.10044475	      1.78198893	     14.38781192	      2.00101012	      0.00000000	      0.00000000	    -36.69488507	     -4.02819900	     -8.81103809	     40.36311785	     -4.81520909	     13.85966987	     78.16816537	     48.79937962	      0.00000000	      0.00000000	     45.31331148	    -27.39143324	     19.30569062	     79.87021692	     50.16372369	      0.00000000	      0.00000000
      5.03000000	    -36.88634119	      7.84786134	      5.59775684	      0.27711300	      1.04978285	     -0.15850377	      0.00000000	      0.50000000	      0.00000000	      0.25000000	     34.96446448	    -11.82301439	    -12.12099900	     14.36448072	      0.25070748	    -30.29077638	      4.10690026	      0.00000000	      0.00000000	     91.95691656	     -3.48088888	      1.06063324	    100.86758109	      1.76047140	     14.89156667	      1.53624121	      0.00000000	      0.00000000	    -36.87933014	     -3.48574138	     -9.44471058	     41.40068626	     -4.33586674	     15.30672264	     77.03406158	     48.94740890	      0.00000000	      0.00000000	     44.16497243	    -28.15610331	     17.86670625	     81.34048377	     50.25811059	      0.00000000	      0.00000000
      5.03500000	    -37.12741152	      7.60965179	      5.48504373	      0.27695989	      1.05199028	     -0.15998351	      0.00000000	      0.50000000	      0.00000000	      0.25000000	     35.12080685	    -11.66248204	    -12.01025396	     14.70697107	      0.25668507	    -30.55826450	      3.94001442	      0.00000000	      0.00000000	     91.73757549	     -3.32129134	      1.02146172	     99.53081915	      1.73714050	     15.45538371	      1.15812423	      0.00000000	      0.00000000	    -36.89500191	     -3.16771481	     -9.40733977	     41.68479775	     -4.07810758	     15.29392986	     76.95073745	     48.94207641	      0.00000000	      0.00000000	     44.17572828	    -28.11916228	     17.82707248	     81.37643462	     50.25769232	      0.00000000	      0.00000000
      5.04000000	    -37.36930931	      7.36103719	      5.31616477	      0.27674954	      1.05400386	     -0.16139007	      0.00000000	      0.50000000	      0.00000000	      0.25000000	     35.41780933	    -11.46394547	    -11.76743910	     15.30315343	      0.26709041	    -30.69879791	      3.56686482	      0.00000000	      0.00000000	     91.47498968	     -3.21576803	      1.00867092	     98.14832210	      1.71301138	     16.00457558	      0.67812693	      0.00000000	      0.00000000	    -36.90231694	     -2.84178524	     -9.31723798	     41.96129857	     -3.62359748	     15.45185532	     76.70990517	     48.92510729	      0.00000000	      0.00000000	     44.18567521	    -28.11286706	     17.73153526	     81.44214659	     50.25718419	      0.00000000	      0.00000000
      5.04500000	    -37.42097065	      6.99342383	      5.12987269	      0.27713892	      1.05624857	     -0.16235609	      0.00000000	      0.50000000	      0.00000000	      0.25000000	     35.42598476	    -11.06851593	    -11.47120442	     15.85288941	      0.27668512	    -30.62161238	      3.21220339	      0.00000000	      0.00000000	     90.96396120	     -3.26045281	      1.08307200	     96.71177490	      1.68793890	     16.45651566	      0.43683361	      0.00000000	      0.00000000	    -37.07656030	     -2.43335934	     -9.13465997	     42.14982723	     -3.33865438	     15.52182677	     76.49650712	     48.89992869	      0.00000000	      0.00000000	     44.11996656	    -28.19537245	     17.63369067	     81.47049100	     50.25232294	      0.00000000	      0.00000000
      5.05000000	    -37.41400218	      6.72407533	      4.79741267	      0.27741126	      1.05847035	     -0.16305527	      0.00000000	      0.50000000	      0.00000000	      0.25000000	     35.59070871	    -10.65328898	    -10.91143880	     16.77039705	      0.29269865	    -30.46576337	      1.93363807	      0.00000000	      0.00000000	     90.31191166	     -3.44329817	      1.06326288	     95.20091182	      1.66156936	     16.95877042	      0.13518252	      0.00000000	      0.00000000	    -37.16051647	     -2.02215120	    -10.37093640	     44.15952490	     -0.73107527	     15.92633870	     72.29745744	     48.35495957	      0.00000000	      0.00000000	     42.42579395	    -29.82779606	     15.74903968	     82.80259966	     50.30454405	      0.00000000	      0.00000000
      5.05500000	    -37.43646117	      6.51891368	      4.69350911	      0.27747519	      1.06056720	     -0.16470776	      0.00000000	      0.50000000	      0.00000000	      0.25000000	     35.94171810	    -10.57796219	    -10.65972546	     18.08450257	      0.31563411	    -29.92447621	      1.32382436	      0.00000000	      0.00000000	     89.66311828	     -3.26662504	      1.01457952	     93.61834588	      1.63394838	     17.46074821	     -0.19861851	      0.00000000	      0.00000000	    -37.41726391	     -1.63807974	    -10.34617220	     44.33618080	     -0.50530494	     16.24075252	     72.14992071	     48.37854329	      0.00000000	      0.00000000	     42.44568993	    -29.80769839	     15.55780287	     83.00622456	     50.31842343	      0.00000000	      0.00000000
      5.06000000	    -37.40892814	      6.40826884	      4.55638401	      0.27743660	      1.06264455	     -0.16606582	      0.00000000	      0.50000000	      0.00000000	      0.25000000	     36.35375859	    -10.53336317	    -10.14749859	     19.57837801	      0.34170716	    -29.27805355	      0.58860479	      0.00000000	      0.00000000	     88.91595741	     -3.12195202	      0.89855130	     91.95712498	      1.60495460	     17.81469541	     -0.55367548	      0.00000000	      0.00000000	    -37.70711360	     -1.40567531	    -10.39398334	     44.73181281	     -0.21120236	     16.41291943	     71.95368236	     48.37503438	      0.00000000	      0.00000000	     42.47343932	    -29.93840836	     15.35181137	     83.11170348	     50.31473037	      0.00000000	      0.00000000
      5.06500000	    -37.45342718	      6.35923892	      4.60239613	      0.27772737	      1.06452952	     -0.16712515	      0.00000000	      0.50000000	      0.00000000	      0.25000000	     36.86440394	    -10.62857156	     -9.71977942	     21.25547778	      0.37097807	    -28.40146474	     -0.04783818	      0.00000000	      0.00000000	     88.13106985	     -2.81996802	      0.74590480	     90.15063339	      1.57342538	     17.98677785	     -1.05136218	      0.00000000	      0.00000000	    -37.87933222	     -1.19840808	    -10.58307586	     44.87602040	      0.23204077	     16.17046472	     71.97396219	     48.20216390	      0.00000000	      0.00000000	     42.48247135	    -29.83980851	     14.72906300	     83.20003648	     50.06491017	      0.00000000	      0.00000000
      5.07000000	    -37.39970088	      6.26544315	      4.48764574	      0.27789599	      1.06633548	     -0.16879484	      0.00000000	      0.50000000	      0.00000000	      0.25000000	     37.45472466	    -10.68159396	     -9.27389733	     23.12572599	      0.40362006	    -27.64935417	     -0.64097011	      0.00000000	      0.00000000	     87.30436009	     -2.62877888	      0.57676572	     88.43616363	      1.54350223	     18.06301750	     -1.80770497	      0.00000000	      0.00000000	    -38.00913108	     -0.77701261	    -11.70918246	     46.44813799	      2.07020281	     16.55863473	     68.66665364	     47.81951137	      0.00000000	      0.00000000	     41.23080808	    -31.63656631	     14.18508251	     84.16857707	     50.20621391	      0.00000000	      0.00000000
